<?xml version="1.0" encoding="UTF-8" standalone="no"?>
<!-- Created with Inkscape (http://www.inkscape.org/) -->

<svg
   width="97.109695mm"
   height="96.979599mm"
   viewBox="0 0 97.109694 96.979599"
   version="1.1"
   id="svg1"
   xml:space="preserve"
   inkscape:version="1.4.4 (dcaf3e7d9e, 2026-05-05)"
   sodipodi:docname="vanillify-icon-final.svg"
   xmlns:inkscape="http://www.inkscape.org/namespaces/inkscape"
   xmlns:sodipodi="http://sodipodi.sourceforge.net/DTD/sodipodi-0.dtd"
   xmlns="http://www.w3.org/2000/svg"
   xmlns:svg="http://www.w3.org/2000/svg"><sodipodi:namedview
     id="namedview1"
     pagecolor="#505050"
     bordercolor="#ffffff"
     borderopacity="1"
     inkscape:showpageshadow="0"
     inkscape:pageopacity="0"
     inkscape:pagecheckerboard="1"
     inkscape:deskcolor="#505050"
     inkscape:document-units="mm"
     inkscape:zoom="1.0476431"
     inkscape:cx="-33.885586"
     inkscape:cy="101.1795"
     inkscape:window-width="2560"
     inkscape:window-height="1380"
     inkscape:window-x="0"
     inkscape:window-y="0"
     inkscape:window-maximized="1"
     inkscape:current-layer="layer1" /><defs
     id="defs1"><mask
       id="swoosh-one-colour-g"><rect
         width="108"
         height="108"
         fill="#ffffff"
         id="rect34"
         x="0"
         y="0" /><path
         d="M 39.5,74 C 52,82.5 70.5,78.5 71,47.5 L 63.2,45.8 C 62.5,69.5 52.5,75.5 39.5,74 Z"
         fill="#000000"
         stroke="#000000"
         stroke-width="3.2"
         stroke-linejoin="round"
         id="path34" /></mask><linearGradient
       id="c6-vanilla-trust-bg"
       x1="18"
       y1="18"
       x2="90"
       y2="90"
       gradientUnits="userSpaceOnUse"><stop
         offset="0"
         stop-color="#1f4fbf"
         id="stop72" /><stop
         offset="1"
         stop-color="#0b1f4f"
         id="stop73" /></linearGradient><mask
       id="c6-vanilla-trust-s"><rect
         width="108"
         height="108"
         fill="#ffffff"
         id="rect74"
         x="0"
         y="0" /><rect
         x="35"
         y="40"
         width="20"
         height="42"
         rx="5.4000001"
         transform="rotate(-25,45,61)"
         fill="#000000"
         stroke="#000000"
         stroke-width="3.4"
         id="rect75" /></mask><linearGradient
       id="c6-vanilla-trust-bg-1"
       x1="18"
       y1="18"
       x2="90"
       y2="90"
       gradientUnits="userSpaceOnUse"
       gradientTransform="matrix(0.89999998,0,0,0.89999998,43.549266,61.306507)"><stop
         offset="0"
         stop-color="#1f4fbf"
         id="stop72-8" /><stop
         offset="1"
         stop-color="#0b1f4f"
         id="stop73-7" /></linearGradient><mask
       id="c6-vanilla-trust-s-9"><rect
         width="108"
         height="108"
         fill="#ffffff"
         id="rect74-2"
         x="0"
         y="0" /><rect
         x="35"
         y="40"
         width="20"
         height="42"
         rx="5.4000001"
         transform="rotate(-25,45,61)"
         fill="#000000"
         stroke="#000000"
         stroke-width="3.4"
         id="rect75-0" /></mask><linearGradient
       id="linearGradient7"
       x1="18"
       y1="18"
       x2="90"
       y2="90"
       gradientUnits="userSpaceOnUse"><stop
         offset="0"
         stop-color="#1f4fbf"
         id="stop1-2" /><stop
         offset="1"
         stop-color="#0b1f4f"
         id="stop2-8" /></linearGradient><mask
       id="mask3-7"><rect
         width="108"
         height="108"
         fill="#ffffff"
         id="rect2-3"
         x="0"
         y="0" /><rect
         x="35"
         y="40"
         width="20"
         height="42"
         rx="5.4000001"
         transform="rotate(-25,45,61)"
         fill="#000000"
         stroke="#000000"
         stroke-width="3.4"
         id="rect3-6" /></mask></defs><g
     inkscape:label="Layer 1"
     inkscape:groupmode="layer"
     id="layer1"
     transform="translate(-43.943878,-61.117347)"><rect
       width="97.199989"
       height="97.199989"
       fill="url(#c6-vanilla-trust-bg)"
       id="rect73-9"
       x="43.549309"
       y="61.306419"
       style="fill:url(#c6-vanilla-trust-bg-1);stroke-width:0.264583" /><path
       id="rect4"
       style="fill:#ffffff;stroke-width:1.658;stroke-linecap:round;paint-order:stroke fill markers"
       transform="rotate(-25.764834)"
       d="m 11.554533,118.00114 h 14.044146 c 2.868222,0 5.177296,2.30907 5.177296,5.17729 v 37.49482 c 0,2.86822 -2.309074,5.1773 -5.177296,5.1773 H 11.554533 c -2.8682213,0 -5.1772952,-2.30908 -5.1772952,-5.1773 v -37.49482 c 0,-2.86822 2.3090739,-5.17729 5.1772952,-5.17729 z" /><circle
       style="fill:#1c47ac;fill-opacity:1;stroke:none;stroke-width:1.658;stroke-linecap:round;paint-order:stroke fill markers"
       id="path6"
       cx="69.330002"
       cy="101.08433"
       r="1.041773" /><path
       id="path76-3"
       style="fill:#ffc93c;fill-opacity:1;stroke-width:0.264583"
       d="m 116.20863,70.333597 c -3.66875,3.64634 -5.09875,8.03907 -3.49126,11.76208 a 4.6239614,4.6239614 0 0 1 0.62425,-0.16692 4.6239614,4.6239614 0 0 1 3.40134,0.66249 c 2.46255,-3.22196 2.14046,-7.83039 -0.53433,-12.25765 z m -12.22923,8.82582 c -1.40987,-0.07556 -2.92223,0.06806 -4.488104,0.43357 2.334204,4.61596 6.070344,7.33347 10.107914,6.95513 a 4.6239614,4.6239614 0 0 1 1.71515,-3.67523 c -1.58725,-2.3 -4.20954,-3.54597 -7.33496,-3.71347 z m 19.91403,2.47892 c -2.27993,-0.04892 -4.35327,0.61693 -5.97793,2.0469 a 4.6239614,4.6239614 0 0 1 0.84595,1.9017 4.6239614,4.6239614 0 0 1 -0.0734,2.07997 c 3.82515,1.34629 8.10829,-0.38388 11.49232,-4.29586 -2.1457,-1.10155 -4.29499,-1.68996 -6.28696,-1.73271 z m -13.98881,6.48436 c -3.88603,1.15909 -6.33439,5.07641 -6.77271,10.23038 5.11139,-0.79335 8.85026,-3.50675 9.73791,-7.46362 a 4.6239614,4.6239614 0 0 1 -2.9652,-2.76676 z m 8.10545,0.99736 a 4.6239614,4.6239614 0 0 1 -2.9068,1.88722 4.6239614,4.6239614 0 0 1 -0.6413,0.07855 c -0.0985,4.05407 2.87047,7.59301 7.63674,9.602513 0.82478,-5.106443 -0.59977,-9.501223 -4.08864,-11.568283 z" /><path
       id="path5"
       style="fill:#ffc93c;fill-opacity:1;stroke:none;stroke-width:1.658;stroke-linecap:round;paint-order:stroke fill markers"
       d="m 113.18001,96.509587 c -2.97556,2.68082 -4.85175,3.09975 -6.96888,4.032133 -8.062284,40.38433 -34.542794,30.21499 -34.542794,30.21499 29.195634,12.52669 41.791714,-10.74554 46.923764,-28.62147 -2.28968,-1.47583 -4.12572,-3.302053 -5.41209,-5.625653 z"
       sodipodi:nodetypes="ccccc" /></g></svg>
